# MagicaVoxel @ Ephtracy

# group
g PrototypeModel

# material
mtllib PrototypeModel.mtl
usemtl palette

# normals
vn -1 0 0
vn 1 0 0
vn 0 0 1
vn 0 0 -1
vn 0 -1 0
vn 0 1 0

# texcoords
vt 0.0332031 0.5
vt 0.0644531 0.5
vt 0.0839844 0.5
vt 0.169922 0.5
vt 0.228516 0.5
vt 0.416016 0.5
vt 0.587891 0.5
vt 0.994141 0.5

# verts
v -2 0 2
v -2 0 1
v -2 0 -0
v -2 0 -1
v -2 1 2
v -2 1 1
v -2 1 -0
v -2 1 -1
v -2 3 3
v -2 3 -2
v -2 4 3
v -2 4 2
v -2 4 -1
v -2 4 -2
v -2 5 2
v -2 5 -1
v -2 8 2
v -2 8 -1
v -2 9 3
v -2 9 -2
v -2 11 2
v -2 11 1
v -2 11 -0
v -2 11 -1
v -2 12 2
v -2 12 1
v -2 12 -0
v -2 12 -1
v -2 13 3
v -2 13 -2
v -1 1 2
v -1 1 1
v -1 1 -0
v -1 1 -1
v -1 3 2
v -1 3 1
v -1 3 -0
v -1 3 -1
v -1 7 5
v -1 7 4
v -1 7 2
v -1 7 -1
v -1 7 -3
v -1 7 -4
v -1 8 5
v -1 8 4
v -1 8 2
v -1 8 1
v -1 8 -0
v -1 8 -1
v -1 8 -3
v -1 8 -4
v -1 9 1
v -1 9 -0
v 0 0 2
v 0 0 1
v 0 0 -0
v 0 0 -1
v 0 1 2
v 0 1 1
v 0 1 -0
v 0 1 -1
v 0 3 2
v 0 3 1
v 0 3 -0
v 0 3 -1
v 0 7 5
v 0 7 4
v 0 7 2
v 0 7 -1
v 0 7 -3
v 0 7 -4
v 0 8 5
v 0 8 4
v 0 8 2
v 0 8 1
v 0 8 -0
v 0 8 -1
v 0 8 -3
v 0 8 -4
v 0 9 1
v 0 9 -0
v 1 3 3
v 1 3 2
v 1 3 -1
v 1 3 -2
v 1 4 3
v 1 4 2
v 1 4 -1
v 1 4 -2
v 1 5 2
v 1 5 -1
v 1 8 2
v 1 8 -1
v 2 3 2
v 2 3 -1
v 2 4 2
v 2 4 -1
v 2 9 3
v 2 9 -2
v 2 13 3
v 2 13 -2
v -1 7 5
v -1 8 5
v 0 7 5
v 0 8 5
v -2 3 3
v -2 4 3
v -2 9 3
v -2 13 3
v 1 3 3
v 1 4 3
v 2 9 3
v 2 13 3
v -2 0 2
v -2 1 2
v -2 4 2
v -2 5 2
v -2 8 2
v -1 1 2
v -1 3 2
v -1 7 2
v -1 8 2
v 0 0 2
v 0 1 2
v 0 3 2
v 0 7 2
v 0 8 2
v 1 3 2
v 1 4 2
v 1 5 2
v 1 8 2
v 2 3 2
v 2 4 2
v -1 8 1
v -1 9 1
v 0 8 1
v 0 9 1
v -2 0 -0
v -2 1 -0
v -1 1 -0
v -1 3 -0
v 0 0 -0
v 0 1 -0
v 0 3 -0
v -2 0 1
v -2 1 1
v -1 1 1
v -1 3 1
v 0 0 1
v 0 1 1
v 0 3 1
v -1 8 -0
v -1 9 -0
v 0 8 -0
v 0 9 -0
v -2 0 -1
v -2 1 -1
v -2 4 -1
v -2 5 -1
v -2 8 -1
v -1 1 -1
v -1 3 -1
v -1 7 -1
v -1 8 -1
v 0 0 -1
v 0 1 -1
v 0 3 -1
v 0 7 -1
v 0 8 -1
v 1 3 -1
v 1 4 -1
v 1 5 -1
v 1 8 -1
v 2 3 -1
v 2 4 -1
v -2 3 -2
v -2 4 -2
v -2 9 -2
v -2 13 -2
v 1 3 -2
v 1 4 -2
v 2 9 -2
v 2 13 -2
v -1 7 -4
v -1 8 -4
v 0 7 -4
v 0 8 -4
v -2 0 2
v 0 0 2
v -2 0 1
v 0 0 1
v -2 0 -0
v 0 0 -0
v -2 0 -1
v 0 0 -1
v -2 3 3
v 1 3 3
v -1 3 2
v 0 3 2
v 1 3 2
v 2 3 2
v -1 3 1
v 0 3 1
v -1 3 -0
v 0 3 -0
v -1 3 -1
v 0 3 -1
v 1 3 -1
v 2 3 -1
v -2 3 -2
v 1 3 -2
v -1 7 5
v 0 7 5
v -1 7 4
v 0 7 4
v -1 7 2
v 0 7 2
v -1 7 -1
v 0 7 -1
v -1 7 -3
v 0 7 -3
v -1 7 -4
v 0 7 -4
v -2 9 3
v 2 9 3
v -1 9 1
v 0 9 1
v -1 9 -0
v 0 9 -0
v -2 9 -2
v 2 9 -2
v -2 1 2
v -1 1 2
v -2 1 1
v -1 1 1
v -2 1 -0
v -1 1 -0
v -2 1 -1
v -1 1 -1
v -2 4 3
v 1 4 3
v -2 4 2
v 1 4 2
v 2 4 2
v -2 4 -1
v 1 4 -1
v 2 4 -1
v -2 4 -2
v 1 4 -2
v -1 8 5
v 0 8 5
v -1 8 4
v 0 8 4
v -2 8 2
v -1 8 2
v 0 8 2
v 1 8 2
v -1 8 1
v 0 8 1
v -1 8 -0
v 0 8 -0
v -2 8 -1
v -1 8 -1
v 0 8 -1
v 1 8 -1
v -1 8 -3
v 0 8 -3
v -1 8 -4
v 0 8 -4
v -2 13 3
v 2 13 3
v -2 13 -2
v 2 13 -2

# faces
f 5/5/1 2/5/1 1/5/1
f 6/5/1 2/5/1 5/5/1
f 7/5/1 4/5/1 3/5/1
f 8/5/1 4/5/1 7/5/1
f 11/6/1 10/6/1 9/6/1
f 12/6/1 10/6/1 11/6/1
f 13/6/1 10/6/1 12/6/1
f 14/6/1 10/6/1 13/6/1
f 15/6/1 13/6/1 12/6/1
f 16/6/1 13/6/1 15/6/1
f 17/7/1 16/7/1 15/7/1
f 18/7/1 16/7/1 17/7/1
f 21/2/1 20/2/1 19/2/1
f 22/2/1 20/2/1 21/2/1
f 23/2/1 20/2/1 22/2/1
f 24/2/1 20/2/1 23/2/1
f 25/2/1 21/2/1 19/2/1
f 25/8/1 22/8/1 21/8/1
f 26/2/1 23/2/1 22/2/1
f 26/8/1 22/8/1 25/8/1
f 27/8/1 24/8/1 23/8/1
f 27/2/1 23/2/1 26/2/1
f 28/2/1 20/2/1 24/2/1
f 28/8/1 24/8/1 27/8/1
f 29/2/1 27/2/1 26/2/1
f 29/2/1 26/2/1 25/2/1
f 29/2/1 28/2/1 27/2/1
f 29/2/1 25/2/1 19/2/1
f 30/2/1 20/2/1 28/2/1
f 30/2/1 28/2/1 29/2/1
f 35/1/1 32/1/1 31/1/1
f 36/1/1 32/1/1 35/1/1
f 37/1/1 34/1/1 33/1/1
f 38/1/1 34/1/1 37/1/1
f 45/1/1 40/1/1 39/1/1
f 46/7/1 41/7/1 40/7/1
f 46/1/1 40/1/1 45/1/1
f 47/7/1 41/7/1 46/7/1
f 50/7/1 43/7/1 42/7/1
f 51/1/1 44/1/1 43/1/1
f 51/7/1 43/7/1 50/7/1
f 52/1/1 44/1/1 51/1/1
f 53/1/1 49/1/1 48/1/1
f 54/1/1 49/1/1 53/1/1
f 55/5/2 56/5/2 59/5/2
f 59/5/2 56/5/2 60/5/2
f 57/5/2 58/5/2 61/5/2
f 61/5/2 58/5/2 62/5/2
f 59/1/2 60/1/2 63/1/2
f 63/1/2 60/1/2 64/1/2
f 61/1/2 62/1/2 65/1/2
f 65/1/2 62/1/2 66/1/2
f 67/1/2 68/1/2 73/1/2
f 68/7/2 69/7/2 74/7/2
f 73/1/2 68/1/2 74/1/2
f 74/7/2 69/7/2 75/7/2
f 70/7/2 71/7/2 78/7/2
f 71/1/2 72/1/2 79/1/2
f 78/7/2 71/7/2 79/7/2
f 79/1/2 72/1/2 80/1/2
f 76/1/2 77/1/2 81/1/2
f 81/1/2 77/1/2 82/1/2
f 83/6/2 84/6/2 87/6/2
f 87/6/2 84/6/2 88/6/2
f 85/6/2 86/6/2 89/6/2
f 89/6/2 86/6/2 90/6/2
f 88/6/2 89/6/2 91/6/2
f 91/6/2 89/6/2 92/6/2
f 91/7/2 92/7/2 93/7/2
f 93/7/2 92/7/2 94/7/2
f 95/6/2 96/6/2 97/6/2
f 97/6/2 96/6/2 98/6/2
f 99/2/2 100/2/2 101/2/2
f 101/2/2 100/2/2 102/2/2
f 105/1/3 104/1/3 103/1/3
f 106/1/3 104/1/3 105/1/3
f 111/6/3 108/6/3 107/6/3
f 112/6/3 108/6/3 111/6/3
f 113/2/3 110/2/3 109/2/3
f 114/2/3 110/2/3 113/2/3
f 120/5/3 116/5/3 115/5/3
f 122/7/3 119/7/3 118/7/3
f 123/7/3 119/7/3 122/7/3
f 124/5/3 120/5/3 115/5/3
f 125/1/3 121/1/3 120/1/3
f 125/5/3 120/5/3 124/5/3
f 126/1/3 121/1/3 125/1/3
f 127/7/3 122/7/3 118/7/3
f 130/6/3 118/6/3 117/6/3
f 131/7/3 127/7/3 118/7/3
f 131/7/3 128/7/3 127/7/3
f 131/6/3 118/6/3 130/6/3
f 132/7/3 128/7/3 131/7/3
f 133/6/3 130/6/3 129/6/3
f 134/6/3 130/6/3 133/6/3
f 137/1/3 136/1/3 135/1/3
f 138/1/3 136/1/3 137/1/3
f 141/5/3 140/5/3 139/5/3
f 143/5/3 141/5/3 139/5/3
f 144/1/3 142/1/3 141/1/3
f 144/5/3 141/5/3 143/5/3
f 145/1/3 142/1/3 144/1/3
f 146/5/4 147/5/4 148/5/4
f 146/5/4 148/5/4 150/5/4
f 148/1/4 149/1/4 151/1/4
f 150/5/4 148/5/4 151/5/4
f 151/1/4 149/1/4 152/1/4
f 153/1/4 154/1/4 155/1/4
f 155/1/4 154/1/4 156/1/4
f 157/5/4 158/5/4 162/5/4
f 160/7/4 161/7/4 164/7/4
f 164/7/4 161/7/4 165/7/4
f 157/5/4 162/5/4 166/5/4
f 162/1/4 163/1/4 167/1/4
f 166/5/4 162/5/4 167/5/4
f 167/1/4 163/1/4 168/1/4
f 160/7/4 164/7/4 169/7/4
f 159/6/4 160/6/4 172/6/4
f 160/7/4 169/7/4 173/7/4
f 169/7/4 170/7/4 173/7/4
f 172/6/4 160/6/4 173/6/4
f 173/7/4 170/7/4 174/7/4
f 171/6/4 172/6/4 175/6/4
f 175/6/4 172/6/4 176/6/4
f 177/6/4 178/6/4 181/6/4
f 181/6/4 178/6/4 182/6/4
f 179/2/4 180/2/4 183/2/4
f 183/2/4 180/2/4 184/2/4
f 185/1/4 186/1/4 187/1/4
f 187/1/4 186/1/4 188/1/4
f 191/5/5 190/5/5 189/5/5
f 192/5/5 190/5/5 191/5/5
f 195/5/5 194/5/5 193/5/5
f 196/5/5 194/5/5 195/5/5
f 199/6/5 198/6/5 197/6/5
f 200/6/5 198/6/5 199/6/5
f 201/6/5 198/6/5 200/6/5
f 203/6/5 199/6/5 197/6/5
f 204/6/5 202/6/5 201/6/5
f 204/6/5 201/6/5 200/6/5
f 205/6/5 203/6/5 197/6/5
f 205/6/5 204/6/5 203/6/5
f 206/6/5 202/6/5 204/6/5
f 206/6/5 204/6/5 205/6/5
f 207/6/5 205/6/5 197/6/5
f 208/6/5 202/6/5 206/6/5
f 209/6/5 202/6/5 208/6/5
f 210/6/5 202/6/5 209/6/5
f 211/6/5 207/6/5 197/6/5
f 211/6/5 208/6/5 207/6/5
f 211/6/5 209/6/5 208/6/5
f 212/6/5 209/6/5 211/6/5
f 215/1/5 214/1/5 213/1/5
f 216/1/5 214/1/5 215/1/5
f 217/7/5 216/7/5 215/7/5
f 218/7/5 216/7/5 217/7/5
f 221/7/5 220/7/5 219/7/5
f 222/7/5 220/7/5 221/7/5
f 223/1/5 222/1/5 221/1/5
f 224/1/5 222/1/5 223/1/5
f 227/2/5 226/2/5 225/2/5
f 228/2/5 226/2/5 227/2/5
f 229/2/5 227/2/5 225/2/5
f 230/2/5 226/2/5 228/2/5
f 231/2/5 229/2/5 225/2/5
f 231/2/5 230/2/5 229/2/5
f 232/2/5 226/2/5 230/2/5
f 232/2/5 230/2/5 231/2/5
f 233/5/6 234/5/6 235/5/6
f 235/5/6 234/5/6 236/5/6
f 237/5/6 238/5/6 239/5/6
f 239/5/6 238/5/6 240/5/6
f 241/6/6 242/6/6 243/6/6
f 243/6/6 242/6/6 244/6/6
f 244/6/6 245/6/6 247/6/6
f 247/6/6 245/6/6 248/6/6
f 246/6/6 247/6/6 249/6/6
f 249/6/6 247/6/6 250/6/6
f 251/1/6 252/1/6 253/1/6
f 253/1/6 252/1/6 254/1/6
f 253/7/6 254/7/6 256/7/6
f 256/7/6 254/7/6 257/7/6
f 256/7/6 257/7/6 259/7/6
f 257/7/6 258/7/6 259/7/6
f 255/7/6 256/7/6 259/7/6
f 259/7/6 258/7/6 260/7/6
f 255/7/6 259/7/6 261/7/6
f 260/7/6 258/7/6 262/7/6
f 255/7/6 261/7/6 263/7/6
f 261/7/6 262/7/6 263/7/6
f 263/7/6 262/7/6 264/7/6
f 262/7/6 258/7/6 265/7/6
f 264/7/6 262/7/6 265/7/6
f 265/7/6 258/7/6 266/7/6
f 264/7/6 265/7/6 267/7/6
f 267/7/6 265/7/6 268/7/6
f 267/1/6 268/1/6 269/1/6
f 269/1/6 268/1/6 270/1/6
f 271/2/6 272/2/6 273/2/6
f 273/2/6 272/2/6 274/2/6
