<?xml version="1.0" encoding="utf-8"?>
<!-- Generator: Adobe Illustrator 16.0.0, SVG Export Plug-In . SVG Version: 6.00 Build 0)  -->
<!DOCTYPE svg PUBLIC "-//W3C//DTD SVG 1.1//EN" "http://www.w3.org/Graphics/SVG/1.1/DTD/svg11.dtd">
<svg version="1.1" xmlns="http://www.w3.org/2000/svg" xmlns:xlink="http://www.w3.org/1999/xlink" x="0px" y="0px" width="1324px"
	 height="906.107px" viewBox="188.5 232.127 1324 906.107" enable-background="new 188.5 232.127 1324 906.107"
	 xml:space="preserve">
<g id="background">
	<rect x="166.473" y="216.233" fill="#324570" width="1368.055" height="937.896"/>
</g>
<g id="design">
	<path fill="#EA5C84" d="M467.876,403.511c0,28.3-22.942,51.242-51.242,51.242h-68.892c-28.3,0-51.242-22.942-51.242-51.242l0,0
		c0-28.3,22.942-51.242,51.242-51.242h68.892C444.934,352.269,467.876,375.211,467.876,403.511L467.876,403.511z"/>
	<path fill="#44C19A" d="M702.032,403.511c0,28.3-22.942,51.242-51.242,51.242h-68.892c-28.3,0-51.242-22.942-51.242-51.242l0,0
		c0-28.3,22.942-51.242,51.242-51.242h68.892C679.09,352.269,702.032,375.211,702.032,403.511L702.032,403.511z"/>
	<path fill="#44C19A" d="M936.188,403.511c0,28.3-22.941,51.242-51.242,51.242h-68.892c-28.3,0-51.242-22.942-51.242-51.242l0,0
		c0-28.3,22.942-51.242,51.242-51.242h68.892C913.246,352.269,936.188,375.211,936.188,403.511L936.188,403.511z"/>
	<path fill="#44C19A" d="M1170.343,403.511c0,28.3-22.942,51.242-51.242,51.242h-68.891c-28.3,0-51.242-22.942-51.242-51.242l0,0
		c0-28.3,22.942-51.242,51.242-51.242h68.891C1147.401,352.269,1170.343,375.211,1170.343,403.511L1170.343,403.511z"/>
	<path fill="#44C19A" d="M1404.499,403.511c0,28.3-22.942,51.242-51.242,51.242h-68.891c-28.3,0-51.242-22.942-51.242-51.242l0,0
		c0-28.3,22.942-51.242,51.242-51.242h68.891C1381.557,352.269,1404.499,375.211,1404.499,403.511L1404.499,403.511z"/>
	<path fill="#6198D8" d="M467.876,576.711c0,28.219-22.876,51.096-51.096,51.096h-69.185c-28.219,0-51.096-22.877-51.096-51.096l0,0
		c0-28.22,22.876-51.096,51.096-51.096h69.185C444.999,525.615,467.876,548.491,467.876,576.711L467.876,576.711z"/>
	<path fill="#6198D8" d="M702.032,576.711c0,28.219-22.876,51.096-51.096,51.096h-69.184c-28.22,0-51.096-22.877-51.096-51.096l0,0
		c0-28.22,22.876-51.096,51.096-51.096h69.184C679.156,525.615,702.032,548.491,702.032,576.711L702.032,576.711z"/>
	<path fill="#6198D8" d="M936.188,576.711c0,28.219-22.876,51.096-51.096,51.096h-69.185c-28.219,0-51.096-22.877-51.096-51.096l0,0
		c0-28.22,22.876-51.096,51.096-51.096h69.185C913.312,525.615,936.188,548.491,936.188,576.711L936.188,576.711z"/>
	<path fill="#6198D8" d="M1170.343,576.711c0,28.219-22.876,51.096-51.096,51.096h-69.184c-28.22,0-51.096-22.877-51.096-51.096l0,0
		c0-28.22,22.876-51.096,51.096-51.096h69.184C1147.467,525.615,1170.343,548.491,1170.343,576.711L1170.343,576.711z"/>
	<path fill="#6198D8" d="M1404.499,576.71c0,28.219-22.876,51.095-51.095,51.095h-69.186c-28.219,0-51.095-22.876-51.095-51.095l0,0
		c0-28.219,22.876-51.095,51.095-51.095h69.186C1381.623,525.615,1404.499,548.49,1404.499,576.71L1404.499,576.71z"/>
	<path fill="#6198D8" d="M467.876,749.908c0,28.14-22.811,50.95-50.95,50.95h-69.477c-28.139,0-50.95-22.811-50.95-50.95l0,0
		c0-28.139,22.811-50.949,50.95-50.949h69.477C445.065,698.959,467.876,721.769,467.876,749.908L467.876,749.908z"/>
	<path fill="#6198D8" d="M702.032,749.616c0,28.3-22.942,51.242-51.242,51.242h-68.892c-28.3,0-51.242-22.942-51.242-51.242l0,0
		c0-28.3,22.942-51.242,51.242-51.242h68.892C679.09,698.374,702.032,721.316,702.032,749.616L702.032,749.616z"/>
	<path fill="#6198D8" d="M936.188,749.616c0,28.3-22.941,51.242-51.242,51.242h-68.892c-28.3,0-51.242-22.942-51.242-51.242l0,0
		c0-28.3,22.942-51.242,51.242-51.242h68.892C913.246,698.374,936.188,721.316,936.188,749.616L936.188,749.616z"/>
	<path fill="#6198D8" d="M1170.343,749.616c0,28.3-22.942,51.242-51.242,51.242h-68.893c-28.3,0-51.242-22.942-51.242-51.242l0,0
		c0-28.3,22.942-51.242,51.242-51.242h68.893C1147.401,698.374,1170.343,721.316,1170.343,749.616L1170.343,749.616z"/>
	<path fill="#6198D8" d="M1404.499,749.616c0,28.3-22.942,51.242-51.242,51.242h-68.893c-28.3,0-51.242-22.942-51.242-51.242l0,0
		c0-28.3,22.942-51.242,51.242-51.242h68.893C1381.557,698.374,1404.499,721.316,1404.499,749.616L1404.499,749.616z"/>
	<path fill="#6198D8" d="M467.876,922.668c0,28.3-22.942,51.241-51.242,51.241h-68.893c-28.3,0-51.242-22.941-51.242-51.241l0,0
		c0-28.301,22.942-51.242,51.242-51.242h68.893C444.934,871.426,467.876,894.367,467.876,922.668L467.876,922.668z"/>
	<path fill="#6198D8" d="M702.032,922.668c0,28.3-22.942,51.241-51.242,51.241h-68.893c-28.3,0-51.242-22.941-51.242-51.241l0,0
		c0-28.301,22.942-51.242,51.242-51.242h68.893C679.09,871.426,702.032,894.367,702.032,922.668L702.032,922.668z"/>
	<path fill="#6198D8" d="M936.188,923.105c0,28.059-22.746,50.804-50.804,50.804h-69.769c-28.058,0-50.804-22.745-50.804-50.804l0,0
		c0-28.059,22.746-50.804,50.804-50.804h69.769C913.442,872.302,936.188,895.047,936.188,923.105L936.188,923.105z"/>
	<path fill="#6198D8" d="M1170.343,922.668c0,28.3-22.941,51.241-51.241,51.241h-68.895c-28.3,0-51.241-22.941-51.241-51.241l0,0
		c0-28.301,22.941-51.242,51.241-51.242h68.895C1147.402,871.426,1170.343,894.367,1170.343,922.668L1170.343,922.668z"/>
	<path fill="#6198D8" d="M1404.499,922.668c0,28.3-22.941,51.241-51.241,51.241h-68.895c-28.3,0-51.241-22.941-51.241-51.241l0,0
		c0-28.301,22.941-51.242,51.241-51.242h68.895C1381.558,871.426,1404.499,894.367,1404.499,922.668L1404.499,922.668z"/>
	<polygon fill="#FFFFFF" points="359.97,899.434 359.972,945.905 418.391,922.67 	"/>
	<g>
		<polygon fill="#FFFFFF" points="867.214,430.8 867.21,376.223 853.299,387.915 812.823,387.915 812.823,419.112 853.299,419.112 
					"/>
		<path fill="#FFFFFF" d="M879.277,426.674l-1.404-1.554c5.968-5.4,9.256-12.414,9.256-19.757c0-7.473-3.396-14.583-9.564-20.025
			l1.387-1.571c6.624,5.842,10.275,13.516,10.275,21.597C889.226,413.306,885.691,420.873,879.277,426.674z"/>
	</g>
	<g>
		<polygon fill="#FFFFFF" points="1097.269,430.8 1097.267,376.223 1083.356,387.915 1042.878,387.915 1042.878,419.112 
			1083.356,419.112 		"/>
		<path fill="#FFFFFF" d="M1109.331,426.674l-1.404-1.554c5.97-5.4,9.255-12.414,9.255-19.757c0-7.473-3.395-14.583-9.562-20.025
			l1.387-1.571c6.623,5.842,10.273,13.516,10.273,21.597C1119.281,413.306,1115.746,420.873,1109.331,426.674z"/>
		<path fill="#FFFFFF" d="M1119.865,426.548l-1.643-1.301c4.685-5.905,7.16-12.781,7.16-19.883c0-7.218-2.549-14.187-7.37-20.151
			l1.63-1.315c5.127,6.338,7.838,13.763,7.838,21.467C1127.48,412.944,1124.847,420.268,1119.865,426.548z"/>
	</g>
	<g>
		<polygon fill="#FFFFFF" points="1327.045,430.802 1327.044,376.223 1313.132,387.915 1272.655,387.915 1272.655,419.112 
			1313.132,419.112 		"/>
		<path fill="#FFFFFF" d="M1339.109,426.674l-1.406-1.554c5.971-5.399,9.257-12.414,9.257-19.755c0-7.475-3.396-14.585-9.562-20.025
			l1.385-1.571c6.626,5.842,10.274,13.514,10.274,21.596C1349.057,413.306,1345.523,420.873,1339.109,426.674z"/>
		<path fill="#FFFFFF" d="M1359.868,426.451l-1.779-1.108c3.868-6.224,5.829-12.944,5.829-19.978c0-7.042-2.071-14.043-5.995-20.251
			l1.773-1.119c4.135,6.543,6.32,13.932,6.32,21.37C1366.017,412.692,1363.891,419.983,1359.868,426.451z"/>
		<path fill="#FFFFFF" d="M1349.64,426.548l-1.641-1.301c4.684-5.905,7.16-12.779,7.16-19.882c0-7.219-2.55-14.188-7.371-20.153
			l1.63-1.315c5.128,6.338,7.84,13.763,7.84,21.468C1357.258,412.944,1354.623,420.27,1349.64,426.548z"/>
	</g>
	<polygon fill="#FFFFFF" points="652.173,766.584 652.169,732.651 636.567,739.328 636.567,726.383 580.515,726.383 
		580.515,772.853 636.567,772.853 636.567,759.904 	"/>
	<g>
		<polygon fill="#FFFFFF" points="415.264,553.331 415.262,599.8 356.843,576.565 		"/>
		<rect x="348.064" y="553.331" fill="#FFFFFF" width="2.098" height="46.469"/>
	</g>
	<g>
		<polygon fill="#FFFFFF" points="665.349,598.195 610.963,576.565 665.35,554.932 		"/>
		<polygon fill="#FFFFFF" points="610.963,554.932 610.961,598.195 556.576,576.565 		"/>
	</g>
	<g>
		<polygon fill="#FFFFFF" points="1285.736,553.327 1285.736,599.796 1344.155,576.561 		"/>
		<rect x="1350.837" y="553.327" fill="#FFFFFF" width="2.098" height="46.469"/>
	</g>
	<g>
		<polygon fill="#FFFFFF" points="1035.65,598.195 1090.034,576.563 1035.649,554.932 		"/>
		<polygon fill="#FFFFFF" points="1090.034,554.932 1090.036,598.195 1144.423,576.563 		"/>
	</g>
	<rect x="827.267" y="553.329" fill="#FFFFFF" width="46.467" height="46.469"/>
	<g>
		<rect x="597.242" y="899.431" fill="#FFFFFF" width="12.974" height="46.47"/>
		<rect x="622.471" y="899.431" fill="#FFFFFF" width="12.974" height="46.47"/>
	</g>
	<g>
		<path fill="#FFFFFF" d="M397.712,428.865h-31.049c-7.831,0-14.202-6.372-14.202-14.205v-33.139h9.468v33.139
			c0,2.613,2.124,4.733,4.734,4.733h31.049c2.609,0,4.733-2.121,4.733-4.733v-33.139h9.467v33.139
			C411.913,422.492,405.543,428.865,397.712,428.865z"/>
		<rect x="377.454" y="378.158" fill="#FFFFFF" width="9.468" height="24.666"/>
	</g>
	<g>
		<g>
			<path fill="#FFFFFF" d="M1095.139,742.961c0,5.763-4.67,10.435-10.435,10.435l0,0c-5.761,0-10.431-4.672-10.431-10.435v-13.702
				c0-5.767,4.67-10.438,10.431-10.438l0,0c5.765,0,10.435,4.671,10.435,10.438V742.961z"/>
		</g>
		<g>
			<path fill="#FFFFFF" d="M1109.652,744.191h-6.209c-0.219,10.189-8.545,18.386-18.787,18.386
				c-10.245,0-18.567-8.196-18.789-18.386h-6.209c0.203,12.647,9.797,23.008,22.115,24.424v11.795h5.863V768.6
				C1099.906,767.14,1109.448,756.804,1109.652,744.191z"/>
		</g>
	</g>
	<g>
		<polygon fill="#FFFFFF" points="1285.265,751.908 1352.264,751.905 1318.764,730.29 		"/>
		<rect x="1285.265" y="760.167" fill="#FFFFFF" width="67.092" height="8.774"/>
	</g>
	<g>
		<path fill="#FFFFFF" d="M870.132,899.42v5.694h6.936l-14.057,14.053c-10.165,10.165-23.896,20.521-48.526,21.056v5.692
			c26.708-0.533,41.561-11.732,52.552-22.723l13.786-13.782v6.395h5.693V899.42H870.132z"/>
		<g>
			<polygon fill="#FFFFFF" points="880.823,929.506 880.823,935.927 871.066,926.169 867.04,930.194 877.041,940.196 
				870.132,940.196 870.132,945.888 886.516,945.888 886.516,929.506 			"/>
			<path fill="#FFFFFF" d="M814.485,905.114c19.049,0.41,31.563,6.705,40.968,14.237l4.056-4.06
				c-10.241-8.369-23.928-15.45-45.023-15.872V905.114z"/>
		</g>
	</g>
	<g>
		<polygon fill="#FFFFFF" points="1054.331,940.207 1054.331,929.516 1048.639,929.516 1048.639,945.901 1065.023,945.901 
			1065.023,940.207 		"/>
		<polygon fill="#FFFFFF" points="1054.331,905.125 1065.023,905.125 1065.023,899.431 1048.639,899.431 1048.639,915.82 
			1054.331,915.82 		"/>
		<polygon fill="#FFFFFF" points="1114.977,940.207 1104.286,940.207 1104.286,945.901 1120.671,945.901 1120.671,929.516 
			1114.977,929.516 		"/>
		<polygon fill="#FFFFFF" points="1104.286,899.431 1104.286,905.125 1114.977,905.125 1114.977,915.82 1120.671,915.82 
			1120.671,899.431 		"/>
	</g>
	<g>
		<path fill="#FFFFFF" d="M1335.847,902.186h-13.942l4.714-4.713l-4.029-4.025l-11.585,11.588l11.585,11.584l4.027-4.024
			l-4.714-4.717h13.944c7.326,0,13.287,5.961,13.287,13.286v8.511c0,7.329-5.961,13.285-13.287,13.285h-34.072
			c-7.326,0-13.286-5.956-13.286-13.285v-4.255h-5.694v4.255c0,10.483,8.497,18.979,18.98,18.979h34.072
			c10.484,0,18.98-8.496,18.98-18.979v-8.511C1354.827,910.685,1346.331,902.186,1335.847,902.186z"/>
	</g>
	<polygon fill="#FFFFFF" points="635.604,439.178 602.594,367.844 597.084,367.844 630.094,439.178 	"/>
	<g>
		<polygon fill="#FFFFFF" points="620.937,419.112 629.626,419.112 643.539,430.8 643.538,376.223 629.626,387.915 606.501,387.915 
					"/>
		<polygon fill="#FFFFFF" points="600.991,387.915 589.149,387.915 589.149,419.112 615.427,419.112 		"/>
	</g>
	<polygon fill="#FFFFFF" points="401.448,785.284 368.438,713.95 362.928,713.95 395.938,785.284 	"/>
	<g>
		<polygon fill="#FFFFFF" points="418.013,732.651 402.41,739.329 402.41,726.383 368.957,726.383 390.461,772.853 402.41,772.853 
			402.41,759.906 418.016,766.586 		"/>
		<polygon fill="#FFFFFF" points="363.448,726.383 346.359,726.383 346.359,772.853 384.951,772.853 		"/>
	</g>
	<polygon fill="#FFFFFF" points="869.76,785.283 836.75,713.949 831.24,713.949 864.25,785.283 	"/>
	<g>
		<path fill="#FFFFFF" d="M857.665,750.579c2.038-1.904,3.319-4.608,3.319-7.618V729.26c0-5.768-4.67-10.438-10.436-10.438
			c-2.468,0-4.731,0.861-6.517,2.295L857.665,750.579z"/>
		<path fill="#FFFFFF" d="M864.194,764.685c6.699-4.396,11.164-11.914,11.303-20.494h-6.209c-0.131,6.077-3.157,11.43-7.741,14.772
			L864.194,764.685z"/>
		<path fill="#FFFFFF" d="M857.14,761.35c-2.066,0.781-4.298,1.228-6.638,1.228c-10.246,0-18.568-8.197-18.791-18.387h-6.209
			c0.205,12.648,9.797,23.008,22.115,24.424v11.795h5.865v-11.809c2.191-0.261,4.29-0.816,6.27-1.605L857.14,761.35z"/>
		<path fill="#FFFFFF" d="M850.549,753.396c0.949,0,1.863-0.138,2.737-0.375l-12.581-27.187c-0.373,1.074-0.586,2.223-0.586,3.425
			v13.701C840.119,748.724,844.789,753.396,850.549,753.396z"/>
	</g>
</g>
<g id="vexels">
	<g>
		<g>
			<path fill="#44C19A" d="M801.776,1112.795c-1.633-0.061-3.169-0.412-4.614-1.055c-1.435-0.64-2.692-1.498-3.75-2.592
				c-1.062-1.079-1.896-2.346-2.509-3.785c-0.62-1.429-0.927-2.977-0.927-4.621v-10.933c0-0.485,0.177-0.901,0.536-1.253
				c0.351-0.356,0.771-0.533,1.261-0.533c0.522,0,0.953,0.177,1.292,0.533c0.34,0.352,0.502,0.768,0.502,1.253v10.933
				c0,1.028,0.185,2.014,0.533,2.944c0.354,0.94,0.851,1.773,1.475,2.509c0.628,0.734,1.366,1.35,2.213,1.853
				c0.841,0.504,1.75,0.854,2.744,1.035v-19.273c0-0.485,0.171-0.901,0.527-1.253c0.349-0.356,0.788-0.533,1.309-0.533
				c0.497,0,0.905,0.177,1.247,0.533c0.342,0.352,0.504,0.768,0.504,1.253v21.195c0,0.497-0.162,0.919-0.504,1.266
				c-0.342,0.354-0.768,0.524-1.297,0.524H801.776z"/>
			<path fill="#44C19A" d="M814.117,1088.161c0.98,0,1.912,0.2,2.785,0.578c0.875,0.376,1.637,0.894,2.281,1.529
				c0.646,0.65,1.154,1.41,1.549,2.28c0.385,0.873,0.572,1.79,0.572,2.771v0.871c0,0.981-0.188,1.898-0.572,2.776
				c-0.395,0.874-0.903,1.625-1.549,2.275c-0.645,0.636-1.406,1.151-2.281,1.533c-0.873,0.382-1.805,0.574-2.785,0.574h-3.636v2.284
				c0,0.983,0.347,1.828,1.056,2.531c0.707,0.706,1.553,1.058,2.537,1.058c0.795,0,1.51-0.234,2.13-0.686
				c0.638-0.468,1.07-1.075,1.323-1.846c0.152-0.482,0.439-0.843,0.879-1.075c0.428-0.227,0.889-0.26,1.377-0.11
				c0.459,0.154,0.814,0.443,1.059,0.873c0.248,0.424,0.296,0.867,0.143,1.321c-0.498,1.526-1.371,2.767-2.629,3.699
				c-1.263,0.937-2.687,1.396-4.281,1.396c-0.984,0-1.911-0.188-2.788-0.569c-0.878-0.389-1.634-0.897-2.288-1.542
				c-0.637-0.638-1.154-1.396-1.543-2.263c-0.381-0.876-0.568-1.804-0.568-2.787v-10.314c0-0.98,0.188-1.897,0.568-2.771
				c0.389-0.87,0.906-1.63,1.543-2.28c0.654-0.636,1.41-1.153,2.288-1.529C812.163,1088.361,813.104,1088.161,814.117,1088.161z
				 M810.482,1099.818h3.636c0.98,0,1.829-0.358,2.54-1.083c0.704-0.715,1.05-1.563,1.05-2.545v-0.871
				c0-0.98-0.346-1.816-1.05-2.522c-0.711-0.698-1.56-1.053-2.54-1.053c-1.014,0-1.873,0.354-2.58,1.053
				c-0.709,0.706-1.056,1.542-1.056,2.522V1099.818z"/>
			<path fill="#44C19A" d="M834.713,1095.093c0-0.245-0.021-0.427-0.047-0.555c-0.035-0.116-0.055-0.206-0.055-0.271
				c-0.117-0.581-0.428-1.136-0.921-1.648c-0.671-0.671-1.498-1.018-2.487-1.018c-1.007,0-1.84,0.347-2.485,1.018
				c-0.674,0.668-1.011,1.509-1.011,2.514v10.605c0,0.976,0.337,1.808,1.011,2.467c0.674,0.68,1.509,1.019,2.485,1.019
				c0.927,0,1.752-0.339,2.487-1.019c0.683-0.733,1.022-1.557,1.022-2.467c0-0.494,0.17-0.909,0.504-1.257
				c0.331-0.36,0.762-0.534,1.291-0.534c0.488,0,0.91,0.174,1.262,0.534c0.352,0.348,0.535,0.763,0.535,1.257
				c0,1.924-0.707,3.594-2.12,4.994c-1.382,1.383-3.044,2.063-4.981,2.063c-1.959,0-3.635-0.681-5.021-2.063
				c-1.404-1.4-2.117-3.07-2.117-4.994v-10.605c0-1.948,0.713-3.641,2.117-5.041c1.387-1.408,3.063-2.115,5.021-2.115
				c1.938,0,3.6,0.707,4.981,2.115c1.382,1.4,2.088,3.061,2.12,4.951v0.051c-0.032,0.491-0.214,0.895-0.557,1.233
				c-0.338,0.343-0.752,0.507-1.24,0.507c-0.498,0-0.918-0.164-1.274-0.507C834.889,1095.987,834.713,1095.584,834.713,1095.093z"/>
			<path fill="#44C19A" d="M848.156,1109.222c0.398,0.03,0.826,0.194,1.265,0.507c0.452,0.301,0.667,0.729,0.667,1.275
				c0,0.523-0.171,0.954-0.518,1.292c-0.359,0.334-0.775,0.498-1.275,0.498c-1.994,0-3.702-0.707-5.111-2.111
				c-1.415-1.404-2.112-3.082-2.112-5.05v-15.866c0-0.517,0.175-0.947,0.529-1.279c0.345-0.339,0.79-0.513,1.31-0.513
				c0.491,0,0.912,0.174,1.26,0.513c0.357,0.332,0.524,0.763,0.524,1.279v0.692h2.036c0.494,0,0.921,0.178,1.27,0.527
				c0.344,0.349,0.533,0.769,0.533,1.26c0,0.52-0.189,0.949-0.533,1.286c-0.349,0.343-0.775,0.498-1.27,0.498h-2.036v11.603
				c0,0.924,0.364,1.768,1.065,2.531C846.41,1108.805,847.21,1109.157,848.156,1109.222z"/>
			<path fill="#44C19A" d="M865.294,1090.091c1.413,1.4,2.12,3.073,2.12,5.002v10.645c0,1.891-0.707,3.542-2.12,4.946
				c-1.379,1.404-3.053,2.111-5.021,2.111h-0.78c-1.939,0-3.594-0.707-4.978-2.111c-1.413-1.365-2.118-3.022-2.118-4.946v-10.645
				c0-1.962,0.705-3.623,2.118-5.002c1.41-1.408,3.068-2.115,4.978-2.115h0.78C862.21,1087.975,863.886,1088.682,865.294,1090.091z
				 M863.775,1095.093c0-0.981-0.336-1.807-1.008-2.475c-0.681-0.645-1.508-0.961-2.493-0.961h-0.74
				c-0.943,0-1.795,0.316-2.528,0.961c-0.671,0.729-1.011,1.558-1.011,2.475v10.645c0,0.91,0.34,1.733,1.011,2.467
				c0.733,0.645,1.585,0.975,2.528,0.975h0.74c0.985,0,1.813-0.33,2.493-0.975c0.672-0.659,1.008-1.491,1.008-2.467V1095.093z"/>
			<path fill="#44C19A" d="M870.319,1095.093c0-1.987,0.693-3.671,2.077-5.045c1.376-1.409,3.062-2.11,5.061-2.11
				c0.496,0,0.915,0.173,1.268,0.524c0.354,0.352,0.53,0.77,0.53,1.256c0,0.59-0.224,1.028-0.666,1.314
				c-0.446,0.291-0.867,0.45-1.266,0.48c-0.956,0.057-1.758,0.417-2.396,1.063c-0.676,0.662-1.021,1.505-1.021,2.517v14.311
				c0,0.955-0.351,1.756-1.055,2.407c-0.708,0.654-1.552,0.984-2.532,0.984V1095.093z"/>
		</g>
		<path fill="#44C19A" d="M895.401,1087.972h-0.789c-1.898,0-3.558,0.701-4.96,2.105c-1.416,1.374-2.115,3.031-2.115,4.99v10.638
			c0,1.916,0.699,3.568,2.115,4.93c1.378,1.413,3.03,2.12,4.96,2.12h0.789c1.96,0,3.632-0.707,5.015-2.12
			c1.408-1.392,2.112-3.034,2.112-4.93v-10.638c0-1.917-0.704-3.586-2.112-4.99C899.002,1088.674,897.335,1087.972,895.401,1087.972
			z M898.89,1105.706c0,0.972-0.335,1.8-1.004,2.464c-0.679,0.648-1.511,0.963-2.485,0.963h-0.738c-0.947,0-1.794-0.314-2.531-0.963
			c-0.673-0.729-1.01-1.558-1.01-2.464v-10.638c0-0.915,0.337-1.738,1.01-2.472c0.737-0.641,1.584-0.97,2.531-0.97h0.738
			c0.975,0,1.807,0.329,2.485,0.97c0.669,0.672,1.004,1.5,1.004,2.472V1105.706z M912.56,1087.972c-1.933,0-3.604,0.701-5.017,2.105
			s-2.111,3.073-2.111,4.99v22.914c1.017,0,1.861-0.35,2.573-1.008c0.704-0.646,1.051-1.452,1.051-2.438v-1.78h3.504
			c1.963,0,3.632-0.707,5.011-2.12c1.415-1.392,2.115-3.034,2.115-4.93v-10.638c0-1.917-0.7-3.586-2.115-4.99
			C916.169,1088.674,914.49,1087.972,912.56,1087.972z M916.05,1105.706c0,0.933-0.316,1.765-0.96,2.464
			c-0.74,0.648-1.575,0.963-2.53,0.963h-3.504v-14.064c0-0.972,0.343-1.8,1.02-2.472c0.733-0.641,1.562-0.97,2.484-0.97
			c0.955,0,1.79,0.329,2.53,0.97c0.644,0.672,0.96,1.5,0.96,2.472V1105.706z M934.506,1090.26c-0.639-0.646-1.4-1.148-2.278-1.535
			c-0.875-0.381-1.804-0.575-2.782-0.575c-1.014,0-1.956,0.194-2.834,0.575c-0.874,0.387-1.629,0.889-2.275,1.535
			c-0.643,0.644-1.158,1.397-1.54,2.269c-0.386,0.871-0.578,1.795-0.578,2.77v10.313c0,0.977,0.192,1.901,0.578,2.767
			c0.382,0.876,0.897,1.63,1.54,2.259c0.646,0.65,1.401,1.166,2.275,1.548c0.878,0.376,1.799,0.572,2.789,0.572
			c1.59,0,3.02-0.459,4.27-1.396c1.265-0.933,2.143-2.164,2.627-3.693c0.157-0.465,0.109-0.895-0.142-1.323
			c-0.236-0.433-0.591-0.719-1.053-0.871c-0.491-0.155-0.946-0.116-1.374,0.113c-0.433,0.229-0.728,0.59-0.878,1.079
			c-0.246,0.758-0.685,1.365-1.314,1.828c-0.631,0.46-1.339,0.686-2.136,0.686c-0.99,0-1.83-0.35-2.53-1.058
			c-0.708-0.698-1.063-1.534-1.063-2.511v-2.296h3.639c0.979,0,1.907-0.184,2.782-0.572c0.878-0.378,1.64-0.891,2.278-1.541
			c0.643-0.632,1.156-1.39,1.538-2.257c0.382-0.875,0.575-1.795,0.575-2.775v-0.871c0-0.975-0.193-1.898-0.575-2.77
			S935.149,1090.903,934.506,1090.26z M933.034,1096.169c0,0.98-0.353,1.83-1.058,2.545c-0.707,0.716-1.553,1.08-2.531,1.08h-3.639
			v-4.496c0-0.975,0.355-1.815,1.063-2.519c0.7-0.707,1.562-1.059,2.575-1.059c0.979,0,1.824,0.352,2.531,1.059
			c0.705,0.703,1.058,1.544,1.058,2.519V1096.169z M946.46,1087.972c-1.223,0-2.432,0.332-3.629,1.014
			c-0.34-0.682-0.886-1.014-1.656-1.014c-0.493,0-0.904,0.177-1.25,0.544c-0.359,0.365-0.549,0.773-0.549,1.236v23.003
			c1.022,0,1.86-0.334,2.531-1.005c0.732-0.707,1.108-1.514,1.108-2.429v-14.254c0-0.95,0.323-1.756,0.964-2.42
			c0.677-0.679,1.502-1.021,2.48-1.021c0.926,0,1.76,0.329,2.493,0.97c0.676,0.672,1.017,1.5,1.017,2.472v17.688
			c1.006,0,1.853-0.334,2.523-1.005c0.704-0.677,1.063-1.487,1.063-2.429v-14.254c0-1.959-0.701-3.616-2.08-4.99
			C950.067,1088.674,948.401,1087.972,946.46,1087.972z M975.702,1099.859c-0.688-0.691-1.495-1.231-2.415-1.627
			c-0.919-0.395-1.899-0.598-2.945-0.598h-0.505c-0.862,0-1.594-0.295-2.185-0.894c-0.603-0.588-0.902-1.313-0.902-2.177
			c0-0.823,0.291-1.538,0.876-2.128c0.591-0.603,1.308-0.895,2.154-0.895c0.834,0,1.544,0.288,2.132,0.868
			c0.329,0.333,0.755,0.512,1.264,0.512c0.501,0,0.924-0.179,1.268-0.512c0.332-0.338,0.5-0.753,0.5-1.256
			c0-0.508-0.168-0.925-0.5-1.264c-0.617-0.605-1.324-1.074-2.119-1.39c-0.803-0.32-1.642-0.482-2.544-0.482
			c-0.909,0-1.769,0.169-2.563,0.498c-0.804,0.343-1.5,0.804-2.088,1.397c-0.602,0.602-1.083,1.296-1.434,2.09
			c-0.358,0.793-0.532,1.646-0.532,2.561c0,0.921,0.174,1.773,0.532,2.567c0.351,0.798,0.832,1.492,1.434,2.081
			c0.588,0.599,1.284,1.07,2.088,1.422c0.795,0.354,1.654,0.527,2.563,0.527l0.516,0.039c1.131,0,2.095,0.396,2.88,1.177
			c0.77,0.779,1.172,1.715,1.172,2.813c0,1.102-0.402,2.051-1.172,2.84c-0.785,0.799-1.732,1.196-2.834,1.196
			c-0.918,0-1.741-0.273-2.46-0.828c-0.721-0.546-1.21-1.26-1.45-2.157c-0.119-0.477-0.399-0.852-0.822-1.097
			c-0.436-0.235-0.895-0.283-1.391-0.137c-0.455,0.156-0.815,0.443-1.056,0.855c-0.242,0.417-0.304,0.858-0.181,1.339
			c0.462,1.657,1.378,2.99,2.734,4.019c1.361,1.022,2.904,1.535,4.625,1.535c1.046,0,2.026-0.199,2.945-0.603
			c0.92-0.394,1.727-0.933,2.415-1.627c0.692-0.677,1.24-1.477,1.635-2.405c0.401-0.919,0.596-1.885,0.596-2.931
			c0-1.035-0.194-2.011-0.596-2.926C976.943,1101.346,976.395,1100.543,975.702,1099.859z M988.58,1109.682
			c-0.439-0.308-0.859-0.472-1.255-0.504c-0.957-0.06-1.754-0.408-2.396-1.058c-0.709-0.758-1.059-1.599-1.059-2.511v-11.595h2.027
			c0.487,0,0.906-0.166,1.262-0.509c0.357-0.323,0.53-0.764,0.53-1.273c0-0.495-0.173-0.91-0.53-1.265
			c-0.355-0.349-0.774-0.523-1.262-0.523h-2.027v-0.692c0-0.521-0.175-0.945-0.528-1.279c-0.358-0.339-0.778-0.501-1.266-0.501
			c-0.527,0-0.956,0.162-1.306,0.501c-0.357,0.334-0.532,0.758-0.532,1.279v15.857c0,1.952,0.702,3.634,2.115,5.025
			c1.408,1.413,3.106,2.12,5.109,2.12c0.487,0,0.903-0.17,1.261-0.498c0.348-0.348,0.525-0.772,0.525-1.291
			C989.249,1110.419,989.037,1109.995,988.58,1109.682z M999.412,1087.972h-0.773c-1.895,0-3.559,0.701-4.973,2.105
			c-1.406,1.374-2.111,3.031-2.111,4.99v10.638c0,1.916,0.705,3.568,2.111,4.93c1.387,1.413,3.041,2.12,4.973,2.12h0.773
			c1.972,0,3.646-0.707,5.021-2.12c1.405-1.392,2.114-3.034,2.114-4.93v-10.638c0-1.917-0.709-3.586-2.114-4.99
			C1003.024,1088.674,1001.354,1087.972,999.412,1087.972z M1002.927,1105.706c0,0.972-0.351,1.8-1.022,2.464
			c-0.683,0.648-1.498,0.963-2.492,0.963h-0.73c-0.938,0-1.792-0.314-2.531-0.963c-0.671-0.729-1.014-1.558-1.014-2.464v-10.638
			c0-0.915,0.343-1.738,1.014-2.472c0.739-0.641,1.593-0.97,2.531-0.97h0.73c0.994,0,1.81,0.329,2.492,0.97
			c0.672,0.672,1.022,1.5,1.022,2.472V1105.706z M1016.579,1087.972c-1.964,0-3.631,0.701-5.015,2.105
			c-1.412,1.404-2.128,3.079-2.128,5.034v10.594c0,1.916,0.716,3.582,2.128,4.986c1.384,1.364,3.051,2.063,5.015,2.063
			c1.938,0,3.593-0.699,4.964-2.063c1.42-1.404,2.122-3.07,2.122-4.986c0-0.493-0.174-0.917-0.526-1.271
			c-0.352-0.346-0.771-0.524-1.268-0.524c-0.517,0-0.948,0.179-1.286,0.524c-0.344,0.354-0.509,0.777-0.509,1.271
			c0,0.906-0.332,1.734-1.004,2.464c-0.744,0.675-1.573,1.009-2.493,1.009c-0.987,0-1.81-0.334-2.488-1.009
			c-0.671-0.664-1.001-1.492-1.001-2.464v-10.594c0-1.007,0.33-1.844,1.001-2.516c0.65-0.673,1.47-1.009,2.488-1.009
			c0.978,0,1.803,0.336,2.493,1.009c0.48,0.513,0.788,1.067,0.904,1.644c0,0.064,0.022,0.157,0.061,0.278
			c0.025,0.12,0.039,0.306,0.039,0.55c0,0.485,0.18,0.897,0.528,1.24c0.357,0.334,0.772,0.501,1.267,0.501
			c0.496,0,0.903-0.167,1.242-0.501c0.336-0.343,0.521-0.755,0.552-1.24v-0.044c-0.03-1.894-0.736-3.542-2.122-4.946
			C1020.172,1088.674,1018.518,1087.972,1016.579,1087.972z M1037.689,1100.751c-0.426-0.456-0.897-0.841-1.424-1.148
			c1.108-1.278,1.668-2.793,1.668-4.534v-2.835c0-0.495-0.189-0.91-0.54-1.265c-0.351-0.349-0.767-0.523-1.255-0.523
			s-0.921,0.175-1.268,0.523c-0.361,0.354-0.522,0.77-0.522,1.265v2.835c0,0.972-0.355,1.815-1.064,2.527
			c-0.643,0.637-1.442,0.989-2.401,1.053h-0.856v-8.848c0-0.484-0.182-0.915-0.522-1.258c-0.339-0.35-0.759-0.524-1.294-0.524
			c-0.479,0-0.909,0.175-1.255,0.524c-0.352,0.343-0.521,0.773-0.521,1.258v22.955c0.98,0,1.821-0.334,2.525-1.005
			c0.702-0.677,1.066-1.476,1.066-2.391v-7.186h2.705c0.973,0.059,1.797,0.406,2.434,1.048c0.677,0.712,1.013,1.544,1.013,2.522
			v7.011c0.985,0,1.833-0.334,2.534-1.005c0.702-0.677,1.058-1.476,1.058-2.391v-3.615
			C1039.769,1103.815,1039.073,1102.155,1037.689,1100.751z"/>
		<g>
			<path fill="#44C19A" d="M661.232,1110.229v-13.003c0-0.874,0.62-1.461,1.463-1.461h3.483c1.941,0,3.717,1.746,3.717,3.779v8.411
				c0,2.157-1.775,3.754-3.717,3.754h-3.483C661.784,1111.71,661.232,1111.005,661.232,1110.229z M663.107,1097.654
				c0,4.099,0.023,8.045,0.023,12.164h3.049c0.981,0,1.825-0.839,1.825-1.862v-8.393c0-1.017-0.844-1.909-1.825-1.909H663.107z"/>
			<path fill="#44C19A" d="M681.036,1097.654l-5.359,0.039v4.909h5.128v1.887h-5.128v3.416c0,1.028,0.847,1.913,1.896,1.913h3.463
				v1.892h-3.463c-2.055,0-3.783-1.77-3.783-3.805v-10.662c0-0.868,0.748-1.478,1.528-1.478h5.718V1097.654z"/>
			<path fill="#44C19A" d="M688.346,1095.579c2.07,0,4.193,1.527,4.193,4.467h-1.872c0-1.685-1.157-2.573-2.321-2.573
				c-1.192,0-2.349,0.678-2.349,1.939v1.317c0,1.251,1.434,1.689,2.555,1.915c1.845,0.389,3.987,0.958,3.987,3.738v1.639
				c0,2.551-2.142,3.85-4.214,3.85c-2.168,0-4.195-1.524-4.171-4.487h1.843c0,1.707,1.142,2.57,2.328,2.57
				c1.157,0,2.342-0.678,2.342-1.933v-1.639c0-1.367-1.276-1.666-2.505-1.873c-1.982-0.387-3.989-0.843-4.008-3.78v-1.317
				C684.154,1096.883,686.198,1095.579,688.346,1095.579z"/>
			<path fill="#44C19A" d="M696.431,1111.71v-15.944h1.89v15.944H696.431z"/>
			<path fill="#44C19A" d="M705.956,1102.714h3.006c0.865,0,1.48,0.597,1.48,1.434v3.874c0,2.53-2.142,3.83-4.305,3.83
				c-2.191,0-4.335-1.325-4.335-3.92v-8.495c0-2.581,2.1-3.881,4.287-3.881c2.145,0,4.286,1.526,4.31,4.512h-1.916
				c0-1.731-1.184-2.614-2.394-2.614c-1.233,0-2.413,0.678-2.413,1.983v8.495c0,1.321,1.232,2.022,2.461,2.022
				c1.231,0,2.395-0.678,2.417-1.933v-3.44h-2.599V1102.714z"/>
			<path fill="#44C19A" d="M722.447,1095.765v14.649c0,0.864-0.591,1.295-1.209,1.295c-0.453,0-1.07-0.319-1.296-0.816
				c-1.14-2.805-2.233-6.039-3.418-9.141c-0.41-1.092-0.865-3.302-1.068-3.897l-0.277,0.076l0.548,2.798l0.094,10.98h-1.937v-14.669
				c-0.023-0.848,0.612-1.342,1.28-1.342c0.538,0,1.225,0.337,1.334,0.907l-0.014-0.055l4.695,13.267h0.125l-0.653-3.007
				l-0.096-11.046H722.447z"/>
			<path fill="#44C19A" d="M733.307,1097.654l-5.35,0.039v4.909h5.126v1.887h-5.126v3.416c0,1.028,0.837,1.913,1.89,1.913h3.459
				v1.892h-3.459c-2.053,0-3.783-1.77-3.783-3.805v-10.662c0-0.868,0.755-1.478,1.529-1.478h5.713V1097.654z"/>
			<path fill="#44C19A" d="M736.977,1110.229v-13.003c0-0.874,0.615-1.461,1.461-1.461h3.485c1.932,0,3.713,1.746,3.713,3.779v8.411
				c0,2.157-1.782,3.754-3.713,3.754h-3.485C737.523,1111.71,736.977,1111.005,736.977,1110.229z M738.843,1097.654
				c0,4.099,0.024,8.045,0.024,12.164h3.056c0.975,0,1.819-0.839,1.819-1.862v-8.393c0-1.017-0.844-1.909-1.819-1.909H738.843z"/>
			<path fill="#44C19A" d="M763.107,1103.142c1.506,0.233,2.23,1.848,2.23,2.941v1.894c0,1.977-1.823,3.732-3.713,3.759h-3.464
				c-0.906,0-1.461-0.57-1.461-1.507v-12.986c0-0.891,0.555-1.478,1.461-1.478h3.169c2.005,0.021,3.763,1.613,3.763,3.779v0.8
				C765.093,1101.207,764.472,1102.828,763.107,1103.142z M758.573,1097.654v4.579h3.008c0.954,0,1.637-0.864,1.637-1.889v-0.8
				c0-1.023-0.839-1.891-1.888-1.891H758.573z M763.445,1107.977v-1.894c0-1.068-0.836-1.937-1.864-1.937h-3.008v5.695h3.052
				C762.554,1109.797,763.445,1108.979,763.445,1107.977z"/>
			<path fill="#44C19A" d="M772.559,1104.835v6.875h-1.892v-6.921c-0.477-1.143-0.957-2.278-1.483-3.492
				c-0.728-1.636-1.708-3.964-2.343-5.531h2.003c0.664,1.5,1.983,5.016,2.575,6.49l0.208,1.231c0.021-0.177,0.134-1.051,0.178-1.254
				c0.529-1.275,2.057-5.287,2.556-6.468h2.048L772.559,1104.835z"/>
		</g>
	</g>
	<path fill="#FFFFFF" stroke="#B2B2B7" stroke-miterlimit="10" d="M2100.998,389.163h-384.92c-23.483,0-42.52,19.037-42.52,42.52
		v216.106l-81.211,11.693l81.211,7.938v210.749c0,23.482,19.036,42.52,42.52,42.52h384.92c23.482,0,42.52-19.037,42.52-42.52
		V431.683C2143.518,408.2,2124.481,389.163,2100.998,389.163z"/>
	
		<text transform="matrix(0.9686 0 0 1 1779.3967 437.1536)" fill="#D39422" font-family="'Arial-BoldMT'" font-size="17.2793" letter-spacing="1.032">HOW TO USE THIS VECTOR?</text>
	<g>
		<rect x="1706.164" y="463.988" fill="none" width="415.672" height="450.286"/>
		<text transform="matrix(1 0 0 1 1706.1672 471.1477)"><tspan x="0" y="0" fill="#808080" font-family="'Arial-BoldMT'" font-size="10">This vector graphic has been designed and brought to you by VectorOpenStock.com </tspan><tspan x="0" y="15.2" fill="#808080" font-family="'Arial-BoldMT'" font-size="10">This work is given away for free. In exchange, we ask you to respect some simple </tspan><tspan x="0" y="30.4" fill="#808080" font-family="'Arial-BoldMT'" font-size="10">rules. First, the design is under Creative Commons 3.0 Attribution License, it allows </tspan><tspan x="0" y="45.6" fill="#808080" font-family="'Arial-BoldMT'" font-size="10">you to use this vector (even commercially) as long as you credit us. </tspan><tspan x="0" y="60.8" fill="#808080" font-family="'Arial-BoldMT'" font-size="10">More information can be found here: </tspan><tspan x="0" y="76" fill="#D39422" font-family="'Arial-BoldMT'" font-size="10">www.vectoropenstock.com/terms-and-conditions/</tspan><tspan x="0" y="106.401" fill="#808080" font-family="'Arial-BoldMT'" font-size="10">If you are going to repost or publish this graphic resource in your site you MUST take </tspan><tspan x="0" y="121.6" fill="#808080" font-family="'Arial-BoldMT'" font-size="10">into account the following:</tspan><tspan x="0" y="152" fill="#808080" font-family="'Arial-BoldMT'" font-size="10">-Download of the vector file (zip file) MUST be done from our site. Hosting our designs </tspan><tspan x="0" y="167.2" fill="#808080" font-family="'Arial-BoldMT'" font-size="10">in servers other than ours will be considered an infringement of our copyrights and  we </tspan><tspan x="0" y="182.401" fill="#808080" font-family="'Arial-BoldMT'" font-size="10">will take legal actions.  </tspan><tspan x="0" y="197.6" fill="#808080" font-family="'Arial-BoldMT'" font-size="10">-Keep our brand stripe in the jpg preview. Never place your logo over our design, that </tspan><tspan x="0" y="212.8" fill="#808080" font-family="'Arial-BoldMT'" font-size="10">would be considered copyright infringement.</tspan><tspan x="0" y="228" fill="#808080" font-family="'Arial-BoldMT'" font-size="10">-Place a link in your post to the vector in our site (you can easily find it at </tspan><tspan x="0" y="243.2" fill="#D39422" font-family="'Arial-BoldMT'" font-size="10">http://www.vectoropenstock.com/our-vectors</tspan><tspan x="215.034" y="243.2" fill="#808080" font-family="'Arial-BoldMT'" font-size="10">)</tspan><tspan x="218.364" y="243.2" fill="#808080" font-family="'Arial-BoldMT'" font-size="10" letter-spacing="30">	</tspan><tspan x="0" y="258.4" fill="#808080" font-family="'Arial-BoldMT'" font-size="10">-Don&apos;t copy our descriptions or keywords, come up with your own text. Copying </tspan><tspan x="0" y="273.6" fill="#808080" font-family="'Arial-BoldMT'" font-size="10">descriptions and tags can be considered copyright infringement.</tspan><tspan x="0" y="304" fill="#808080" font-family="'Arial-BoldMT'" font-size="10">If you ever find a site infringing our copyrights or violating any of the conditions stated </tspan><tspan x="0" y="319.201" fill="#808080" font-family="'Arial-BoldMT'" font-size="10">above please inform us at </tspan><tspan x="125.596" y="319.201" fill="#D39422" font-family="'Arial-BoldMT'" font-size="10">http://www.vectoropenstock.com/contact</tspan><tspan x="0" y="349.6" fill="#808080" font-family="'Arial-BoldMT'" font-size="10">Thank you!</tspan><tspan x="0" y="364.8" fill="#808080" font-family="'Arial-BoldMT'" font-size="10">Enjoy vectors and life!</tspan><tspan x="0" y="380" fill="#808080" font-family="'Arial-BoldMT'" font-size="10">Peace and LOVE!</tspan><tspan x="0" y="410.4" fill="#808080" font-family="'Arial-BoldMT'" font-size="10">Vector Open Stock Team</tspan></text>
	</g>
</g>
</svg>
